<svg xmlns="http://www.w3.org/2000/svg">
  <symbol id="icon-system" viewBox="0 0 24 24"><path fill="#303fab" d="M10 4.37V13H8V4.052l.042-.14c.123-.413.45-1.115 1.063-1.728C9.74 1.546 10.695 1 12 1c1.306 0 2.259.546 2.895 1.184c.613.613.94 1.315 1.063 1.728l.042.14v2.385h-2V4.37a2.49 2.49 0 0 0-.52-.773C13.158 3.274 12.694 3 12 3s-1.158.274-1.48.597a2.49 2.49 0 0 0-.52.773ZM4.052 8h2.385v2H4.37a2.49 2.49 0 0 0-.773.52C3.274 10.842 3 11.306 3 12s.274 1.158.597 1.48c.276.276.586.442.773.52H13v2H4.052l-.14-.042c-.413-.123-1.115-.45-1.728-1.063C1.546 14.26 1 13.305 1 12c0-1.306.546-2.259 1.184-2.895c.613-.613 1.315-.94 1.728-1.063L4.052 8ZM11 8h8.948l.14.042c.413.123 1.114.45 1.729 1.063C22.454 9.74 23 10.695 23 12c0 1.306-.546 2.259-1.183 2.895c-.614.613-1.316.94-1.729 1.063l-.14.042h-2.384v-2h2.066a2.49 2.49 0 0 0 .773-.52c.323-.322.597-.786.597-1.48s-.274-1.158-.597-1.48a2.49 2.49 0 0 0-.773-.52H11V8Zm5 3v8.948l-.042.14c-.123.413-.45 1.114-1.063 1.729C14.26 22.454 13.305 23 12 23c-1.306 0-2.259-.546-2.895-1.183c-.613-.614-.94-1.316-1.063-1.729L8 19.948v-2.384h2v2.066c.078.187.244.497.52.773c.322.323.786.597 1.48.597s1.158-.274 1.48-.597a2.49 2.49 0 0 0 .52-.773V11h2Z"/></symbol>

  <symbol id="icon-profile" viewBox="0 0 24 24"><path fill="#999999" fill-rule="evenodd" d="M12 4a8 8 0 0 0-6.96 11.947A4.99 4.99 0 0 1 9 14h6a4.99 4.99 0 0 1 3.96 1.947A8 8 0 0 0 12 4Zm7.943 14.076A9.959 9.959 0 0 0 22 12c0-5.523-4.477-10-10-10S2 6.477 2 12a9.958 9.958 0 0 0 2.057 6.076l-.005.018l.355.413A9.98 9.98 0 0 0 12 22a9.947 9.947 0 0 0 5.675-1.765a10.055 10.055 0 0 0 1.918-1.728l.355-.413l-.005-.018ZM12 6a3 3 0 1 0 0 6a3 3 0 0 0 0-6Z" clip-rule="evenodd"/></symbol>

  <symbol id="icon-profile-outline" viewBox="0 0 24 24" fill="#currentColor"><g fill="none" stroke="#currentColor" stroke-width="2"><path stroke-linejoin="round" d="M4 18a4 4 0 0 1 4-4h8a4 4 0 0 1 4 4a2 2 0 0 1-2 2H6a2 2 0 0 1-2-2Z"/><circle cx="12" cy="7" r="3"/></g></symbol>

  <symbol id="icon-dashboard" viewBox="0 0 24 24"><path fill="none" stroke="#currentColor" stroke-linecap="round" stroke-linejoin="round" stroke-width="2" d="M8.557 2.75H4.682A1.932 1.932 0 0 0 2.75 4.682v3.875a1.942 1.942 0 0 0 1.932 1.942h3.875a1.942 1.942 0 0 0 1.942-1.942V4.682A1.942 1.942 0 0 0 8.557 2.75m10.761 0h-3.875a1.942 1.942 0 0 0-1.942 1.932v3.875a1.943 1.943 0 0 0 1.942 1.942h3.875a1.942 1.942 0 0 0 1.932-1.942V4.682a1.932 1.932 0 0 0-1.932-1.932m0 10.75h-3.875a1.942 1.942 0 0 0-1.942 1.933v3.875a1.942 1.942 0 0 0 1.942 1.942h3.875a1.942 1.942 0 0 0 1.932-1.942v-3.875a1.932 1.932 0 0 0-1.932-1.932M8.557 13.5H4.682a1.943 1.943 0 0 0-1.932 1.943v3.875a1.932 1.932 0 0 0 1.932 1.932h3.875a1.942 1.942 0 0 0 1.942-1.932v-3.875a1.942 1.942 0 0 0-1.942-1.942"/></symbol>

  <symbol id="icon-dashboard-fill" viewBox="0 0 24 24"><path fill="#currentColor" d="M10.995 4.68v3.88A2.44 2.44 0 0 1 8.545 11h-3.86a2.38 2.38 0 0 1-1.72-.72a2.41 2.41 0 0 1-.71-1.72V4.69a2.44 2.44 0 0 1 2.43-2.44h3.87a2.42 2.42 0 0 1 1.72.72a2.39 2.39 0 0 1 .72 1.71m10.75.01v3.87a2.46 2.46 0 0 1-2.43 2.44h-3.88a2.5 2.5 0 0 1-1.73-.71a2.44 2.44 0 0 1-.71-1.73V4.69a2.39 2.39 0 0 1 .72-1.72a2.42 2.42 0 0 1 1.72-.72h3.87a2.46 2.46 0 0 1 2.44 2.44m0 10.75v3.87a2.46 2.46 0 0 1-2.43 2.44h-3.88a2.5 2.5 0 0 1-1.75-.69a2.42 2.42 0 0 1-.71-1.73v-3.87a2.391 2.391 0 0 1 .72-1.72a2.421 2.421 0 0 1 1.72-.72h3.87a2.46 2.46 0 0 1 2.44 2.44zm-10.75.01v3.87a2.46 2.46 0 0 1-2.45 2.43h-3.86a2.42 2.42 0 0 1-2.43-2.43v-3.87A2.46 2.46 0 0 1 4.685 13h3.87a2.49 2.49 0 0 1 1.73.72a2.45 2.45 0 0 1 .71 1.73"/></symbol>

  <symbol id="icon-house-fill" viewBox="0 0 576 512"><path fill="#currentColor" d="M575.8 255.5c0 18-15 32.1-32 32.1h-32l.7 160.2c0 2.7-.2 5.4-.5 8.1v16.2c0 22.1-17.9 40-40 40h-16c-1.1 0-2.2 0-3.3-.1c-1.4.1-2.8.1-4.2.1L416 512h-24c-22.1 0-40-17.9-40-40v-88c0-17.7-14.3-32-32-32h-64c-17.7 0-32 14.3-32 32v88c0 22.1-17.9 40-40 40h-55.9c-1.5 0-3-.1-4.5-.2c-1.2.1-2.4.2-3.6.2h-16c-22.1 0-40-17.9-40-40V360c0-.9 0-1.9.1-2.8v-69.7h-32c-18 0-32-14-32-32.1c0-9 3-17 10-24L266.4 8c7-7 15-8 22-8s15 2 21 7l255.4 224.5c8 7 12 15 11 24"/></symbol>

  <svg id="icon-house-outline" viewBox="0 0 576 512">
    <path 
      d="M575.8 255.5c0 18-15 32.1-32 32.1h-32l.7 160.2c0 2.7-.2 5.4-.5 8.1v16.2c0 22.1-17.9 40-40 40h-16c-1.1 0-2.2 0-3.3-.1c-1.4.1-2.8.1-4.2.1L416 512h-24c-22.1 0-40-17.9-40-40v-88c0-17.7-14.3-32-32-32h-64c-17.7 0-32 14.3-32 32v88c0 22.1-17.9 40-40 40h-55.9c-1.5 0-3-.1-4.5-.2c-1.2.1-2.4.2-3.6.2h-16c-22.1 0-40-17.9-40-40V360c0-.9 0-1.9.1-2.8v-69.7h-32c-18 0-32-14-32-32.1c0-9 3-17 10-24L266.4 8c7-7 15-8 22-8s15 2 21 7l255.4 224.5c8 7 12 15 11 24"
      fill="none"
      stroke="#currentColor"
      stroke-width="48"
      stroke-linecap="round"
      stroke-linejoin="round"
    />
  </svg>

  <symbol id="icon-service-outline" viewBox="0 0 16 16"><path fill="#currentColor" d="M4.494 7.49a.5.5 0 0 0 0 1h1.99a.498.498 0 0 0 .5-.5a.5.5 0 0 0-.5-.5h-1.99Zm0 2.51a.5.5 0 0 0 0 1h1.99a.5.5 0 0 0 0-1h-1.99Zm.49-4.51a.5.5 0 1 1-1 0a.5.5 0 0 1 1 0ZM3.5 3A1.5 1.5 0 0 0 2 4.5v7A1.5 1.5 0 0 0 3.5 13h6c.653.002 1.305-.386 1.467-1.214l.146-.746H12.5a1.5 1.5 0 0 0 1.5-1.5V6.51c0-.963-.716-1.484-1.45-1.51H8.995v-.5a1.5 1.5 0 0 0-1.5-1.5H3.5Zm5.495 3h2.09a1.568 1.568 0 0 0-.059.23l-.148.782v.002l-.893 4.58c-.116.595-.99.51-.99-.095V6Zm-1 5.499c0 .183.026.35.075.501H3.5a.5.5 0 0 1-.5-.5v-7a.5.5 0 0 1 .5-.5h3.995a.5.5 0 0 1 .5.5v6.999ZM12.5 10.04h-1.192l.552-2.837V7.2l.149-.785c.113-.596.991-.514.991.093V9.54a.5.5 0 0 1-.5.5Z"/></symbol>

  <symbol id="icon-contract-outline" viewBox="0 0 24 24" fill="#currentColor"><g fill="none" stroke="#currentColor" stroke-linecap="round" stroke-linejoin="round" stroke-width="2"><path d="M8 21H6a3 3 0 0 1-3-3v-1h5.5M17 8.5V5a2 2 0 1 1 2 2h-2"/><path d="M19 3H8a3 3 0 0 0-3 3v11M9 7h4m-4 4h4m5.42 1.61a2.1 2.1 0 0 1 2.97 2.97L15 22h-3v-3z"/></g></symbol>

  <symbol id="icon-users-outline" viewBox="0 0 24 24" fill="#currentColor"><g fill="none" stroke="#currentColor" stroke-linecap="round" stroke-linejoin="round" stroke-width="2"><path d="M16 21v-2a4 4 0 0 0-4-4H6a4 4 0 0 0-4 4v2"/><circle cx="9" cy="7" r="4"/><path d="M22 21v-2a4 4 0 0 0-3-3.87m-3-12a4 4 0 0 1 0 7.75"/></g></symbol>

  <symbol id="icon-config-outline" viewBox="0 0 24 24"><path fill="none" stroke="#currentColor" stroke-linecap="round" stroke-linejoin="round" stroke-width="1.5" d="M21 5h-3m-4.25-2v4M13 5H3m4 7H3m7.75-2v4M21 12H11m10 7h-3m-4.25-2v4M13 19H3"/></symbol>

  <symbol id="icon-setting-config-outline" viewBox="0 0 24 24" fill="#currentColor"><g fill="none" fill-rule="evenodd"><path d="M24 0v24H0V0h24ZM12.594 23.258l-.012.002l-.071.035l-.02.004l-.014-.004l-.071-.036c-.01-.003-.019 0-.024.006l-.004.01l-.017.428l.005.02l.01.013l.104.074l.015.004l.012-.004l.104-.074l.012-.016l.004-.017l-.017-.427c-.002-.01-.009-.017-.016-.018Zm.264-.113l-.014.002l-.184.093l-.01.01l-.003.011l.018.43l.005.012l.008.008l.201.092c.012.004.023 0 .029-.008l.004-.014l-.034-.614c-.003-.012-.01-.02-.02-.022Zm-.715.002a.023.023 0 0 0-.027.006l-.006.014l-.034.614c0 .012.007.02.017.024l.015-.002l.201-.093l.01-.008l.003-.011l.018-.43l-.003-.012l-.01-.01l-.184-.092Z"/><path fill="#ffffff" d="M16 15c1.306 0 2.418.835 2.83 2H20a1 1 0 1 1 0 2h-1.17a3.001 3.001 0 0 1-5.66 0H4a1 1 0 1 1 0-2h9.17A3.001 3.001 0 0 1 16 15Zm0 2a1 1 0 1 0 0 2a1 1 0 0 0 0-2ZM8 9a3 3 0 0 1 2.762 1.828l.067.172H20a1 1 0 0 1 .117 1.993L20 13h-9.17a3.001 3.001 0 0 1-5.592.172L5.17 13H4a1 1 0 0 1-.117-1.993L4 11h1.17A3.001 3.001 0 0 1 8 9Zm0 2a1 1 0 1 0 0 2a1 1 0 0 0 0-2Zm8-8c1.306 0 2.418.835 2.83 2H20a1 1 0 1 1 0 2h-1.17a3.001 3.001 0 0 1-5.66 0H4a1 1 0 0 1 0-2h9.17A3.001 3.001 0 0 1 16 3Zm0 2a1 1 0 1 0 0 2a1 1 0 0 0 0-2Z"/></g></symbol>

  <symbol id="icon-setting-outline" viewBox="0 0 24 24"><path fill="#currentColor" d="M19.9 12.66a1 1 0 0 1 0-1.32l1.28-1.44a1 1 0 0 0 .12-1.17l-2-3.46a1 1 0 0 0-1.07-.48l-1.88.38a1 1 0 0 1-1.15-.66l-.61-1.83a1 1 0 0 0-.95-.68h-4a1 1 0 0 0-1 .68l-.56 1.83a1 1 0 0 1-1.15.66L5 4.79a1 1 0 0 0-1 .48L2 8.73a1 1 0 0 0 .1 1.17l1.27 1.44a1 1 0 0 1 0 1.32L2.1 14.1a1 1 0 0 0-.1 1.17l2 3.46a1 1 0 0 0 1.07.48l1.88-.38a1 1 0 0 1 1.15.66l.61 1.83a1 1 0 0 0 1 .68h4a1 1 0 0 0 .95-.68l.61-1.83a1 1 0 0 1 1.15-.66l1.88.38a1 1 0 0 0 1.07-.48l2-3.46a1 1 0 0 0-.12-1.17ZM18.41 14l.8.9l-1.28 2.22l-1.18-.24a3 3 0 0 0-3.45 2L12.92 20h-2.56L10 18.86a3 3 0 0 0-3.45-2l-1.18.24l-1.3-2.21l.8-.9a3 3 0 0 0 0-4l-.8-.9l1.28-2.2l1.18.24a3 3 0 0 0 3.45-2L10.36 4h2.56l.38 1.14a3 3 0 0 0 3.45 2l1.18-.24l1.28 2.22l-.8.9a3 3 0 0 0 0 3.98Zm-6.77-6a4 4 0 1 0 4 4a4 4 0 0 0-4-4Zm0 6a2 2 0 1 1 2-2a2 2 0 0 1-2 2Z"/></symbol>

  <symbol id="icon-user-profile" viewBox="0 0 25 24"><path fill="#currentColor" fill-rule="evenodd" d="M16.434 6.35c0 2.39-1.94 4.34-4.34 4.34l-.01-.01c-2.39 0-4.34-1.95-4.34-4.34S9.704 2 12.094 2s4.34 1.96 4.34 4.35m-1.5-.01c0-1.56-1.27-2.84-2.84-2.84c-1.56 0-2.84 1.28-2.84 2.84s1.28 2.84 2.84 2.84a2.85 2.85 0 0 0 2.84-2.84" clip-rule="evenodd"/><path fill="#000000" d="M12.024 12.19c2.67 0 4.76.75 6.21 2.23v-.01c2.046 2.086 2.04 4.846 2.04 5.024v.005c-.01.41-.34.74-.75.74h-.01a.755.755 0 0 1-.74-.76c0-.05 0-2.33-1.62-3.97c-1.16-1.17-2.89-1.77-5.13-1.77s-3.97.6-5.13 1.77c-1.62 1.65-1.62 3.95-1.62 3.97c0 .41-.33.76-.74.76c-.36.02-.76-.32-.76-.73v-.004c-.001-.168-.008-2.939 2.04-5.026c1.45-1.48 3.54-2.23 6.21-2.23"/></symbol>

  <symbol id="icon-notification-unused" viewBox="0 0 24 24"><g fill="none"><path stroke="#currentColor" stroke-linecap="round" stroke-linejoin="round" stroke-width="2" d="M18.477 9.75v3.64a3 3 0 0 0 .456 1.59l1.09 1.74a1 1 0 0 1-.849 1.53H4.826a1 1 0 0 1-.848-1.53l1.088-1.74a3 3 0 0 0 .457-1.59V9.226A6.477 6.477 0 0 1 14.52 3.26"/><path stroke="#currentColor" stroke-linecap="round" stroke-width="2" d="M10 21.25h4"/><circle cx="18.5" cy="5.5" r="2.5" fill="#currentColor"/></g></symbol>

  <svg id="icon-notification" viewBox="0 0 24 24">
    <g fill="none">
      <!-- Bell paths -->
      <path stroke="currentColor" stroke-linecap="round" stroke-linejoin="round" stroke-width="1.5"
        d="M18.477 9.75v3.64a3 3 0 0 0 .456 1.59l1.09 1.74a1 1 0 0 1-.849 1.53H4.826a1 1 0 0 1-.848-1.53l1.088-1.74a3 3 0 0 0 .457-1.59V9.226A6.477 6.477 0 0 1 14.52 3.26"/>
      <path stroke="currentColor" stroke-linecap="round" stroke-width="1.5" d="M10 21.25h4"/>
      
      <!-- Notification circle -->
      <circle cx="18.5" cy="5.5" r="2.5" class="notif-circle"/>
    </g>
  </svg>

  <symbol id="icon-document-lease" viewBox="0 0 32 32"><path fill="#currentColor" d="M6 3v26h20V9.594l-.28-.313l-6-6l-.314-.28H6zm2 2h10v6h6v16H8V5zm12 1.438L22.563 9H20V6.437zM11 13v2h10v-2H11zm0 4v2h10v-2H11zm0 4v2h10v-2H11z"/></symbol>

  <symbol id="icon-document-outline" viewBox="0 0 24 24"><path fill="#currentColor" fill-rule="evenodd" d="M10.944 1.25h2.112c1.838 0 3.294 0 4.433.153c1.172.158 2.121.49 2.87 1.238a.75.75 0 0 1-1.06 1.06c-.424-.422-1.004-.676-2.01-.811c-1.027-.138-2.382-.14-4.289-.14h-2c-1.907 0-3.261.002-4.29.14c-1.005.135-1.585.389-2.008.812c-.423.423-.677 1.003-.812 2.009c-.138 1.028-.14 2.382-.14 4.289v4c0 1.907.002 3.262.14 4.29c.135 1.005.389 1.585.812 2.008c.423.423 1.003.677 2.009.812c1.028.138 2.382.14 4.289.14h2c1.907 0 3.262-.002 4.29-.14c1.005-.135 1.585-.389 2.008-.812c.696-.696.907-1.777.943-4.309a.75.75 0 0 1 1.5.022c-.035 2.427-.192 4.158-1.382 5.348c-.749.748-1.698 1.08-2.87 1.238c-1.14.153-2.595.153-4.433.153h-2.112c-1.838 0-3.294 0-4.433-.153c-1.172-.158-2.121-.49-2.87-1.238c-.748-.749-1.08-1.698-1.238-2.87c-.153-1.14-.153-2.595-.153-4.433V9.944c0-1.838 0-3.294.153-4.433c.158-1.172.49-2.121 1.238-2.87c.749-.748 1.698-1.08 2.87-1.238c1.14-.153 2.595-.153 4.433-.153Zm7.17 5.796a2.716 2.716 0 1 1 3.84 3.84L17.2 15.643a7.025 7.025 0 0 1-.63.587c-.23.18-.48.334-.744.46c-.224.107-.46.185-.806.3l-2.084.695a1.28 1.28 0 0 1-1.62-1.62l.681-2.04l.014-.043c.116-.347.194-.582.301-.806a4.03 4.03 0 0 1 .46-.744c.153-.196.328-.371.587-.63l.031-.031l4.724-4.724Zm2.78 1.06a1.216 1.216 0 0 0-1.72 0l-.182.182c.01.033.021.07.034.107c.094.27.273.63.611.968a2.553 2.553 0 0 0 1.075.645l.182-.182a1.216 1.216 0 0 0 0-1.72Zm-1.328 3.048a4.083 4.083 0 0 1-.99-.73a4.083 4.083 0 0 1-.73-.99L14.45 12.83c-.301.301-.407.409-.496.523c-.113.145-.21.302-.289.467c-.062.131-.111.274-.246.678l-.4 1.2l.283.283l1.2-.4c.404-.135.547-.184.678-.246c.165-.08.322-.176.467-.289c.114-.089.222-.195.523-.496l3.396-3.396ZM7.25 9A.75.75 0 0 1 8 8.25h6.5a.75.75 0 0 1 0 1.5H8A.75.75 0 0 1 7.25 9Zm0 4a.75.75 0 0 1 .75-.75h2.5a.75.75 0 0 1 0 1.5H8a.75.75 0 0 1-.75-.75Zm0 4a.75.75 0 0 1 .75-.75h1.5a.75.75 0 0 1 0 1.5H8a.75.75 0 0 1-.75-.75Z" clip-rule="evenodd"/></symbol>

  <symbol id="icon-document" viewBox="0 0 24 24" fill="#currentColor"><g fill="#currentColor"><path d="M16.519 16.501c.175-.136.334-.295.651-.612l3.957-3.958c.096-.095.052-.26-.075-.305a4.332 4.332 0 0 1-1.644-1.034a4.332 4.332 0 0 1-1.034-1.644c-.045-.127-.21-.171-.305-.075L14.11 12.83c-.317.317-.476.476-.612.651c-.161.207-.3.43-.412.666c-.095.2-.166.414-.308.84l-.184.55l-.292.875l-.273.82a.584.584 0 0 0 .738.738l.82-.273l.875-.292l.55-.184c.426-.142.64-.212.84-.308c.236-.113.46-.25.666-.412Zm5.847-5.809a2.163 2.163 0 1 0-3.058-3.059l-.127.128a.524.524 0 0 0-.148.465c.02.107.055.265.12.452c.13.375.376.867.839 1.33a3.5 3.5 0 0 0 1.33.839c.188.065.345.1.452.12a.525.525 0 0 0 .465-.148l.127-.127Z"/><path fill-rule="evenodd" d="M4.172 3.172C3 4.343 3 6.229 3 10v4c0 3.771 0 5.657 1.172 6.828C5.343 22 7.229 22 11 22h2c3.771 0 5.657 0 6.828-1.172C20.981 19.676 21 17.832 21 14.18l-2.818 2.818c-.27.27-.491.491-.74.686a5.107 5.107 0 0 1-.944.583a8.163 8.163 0 0 1-.944.355l-2.312.771a2.083 2.083 0 0 1-2.635-2.635l.274-.82l.475-1.426l.021-.066c.121-.362.22-.658.356-.944c.16-.335.355-.651.583-.943c.195-.25.416-.47.686-.74l4.006-4.007L18.12 6.7l.127-.127A3.651 3.651 0 0 1 20.838 5.5c-.151-1.03-.444-1.763-1.01-2.328C18.657 2 16.771 2 13 2h-2C7.229 2 5.343 2 4.172 3.172ZM7.25 9A.75.75 0 0 1 8 8.25h6.5a.75.75 0 0 1 0 1.5H8A.75.75 0 0 1 7.25 9Zm0 4a.75.75 0 0 1 .75-.75h2.5a.75.75 0 0 1 0 1.5H8a.75.75 0 0 1-.75-.75Zm0 4a.75.75 0 0 1 .75-.75h1.5a.75.75 0 0 1 0 1.5H8a.75.75 0 0 1-.75-.75Z" clip-rule="evenodd"/></g></symbol>

  <symbol id="icon-login" viewBox="0 0 24 24" fill="#000000"><g fill="none" stroke="#000000" stroke-width="1.5"><path stroke-linecap="round" d="M8 16c0 2.828 0 4.243.879 5.121C9.757 22 11.172 22 14 22h1c2.828 0 4.243 0 5.121-.879C21 20.243 21 18.828 21 16V8c0-2.828 0-4.243-.879-5.121C19.243 2 17.828 2 15 2h-1c-2.828 0-4.243 0-5.121.879C8 3.757 8 5.172 8 8"/><path d="M8 19.5c-2.357 0-3.536 0-4.268-.732C3 18.035 3 16.857 3 14.5v-5c0-2.357 0-3.536.732-4.268C4.464 4.5 5.643 4.5 8 4.5"/><path stroke-linecap="round" stroke-linejoin="round" d="M6 12h9m0 0l-2.5 2.5M15 12l-2.5-2.5"/></g></symbol>

  <symbol id="icon-sign-out-2" viewBox="0 0 24 24"><path fill="#currentColor" d="M9 20.75H6a2.64 2.64 0 0 1-2.75-2.53V5.78A2.64 2.64 0 0 1 6 3.25h3a.75.75 0 0 1 0 1.5H6a1.16 1.16 0 0 0-1.25 1v12.47a1.16 1.16 0 0 0 1.25 1h3a.75.75 0 0 1 0 1.5Zm7-4a.74.74 0 0 1-.53-.22a.75.75 0 0 1 0-1.06L18.94 12l-3.47-3.47a.75.75 0 1 1 1.06-1.06l4 4a.75.75 0 0 1 0 1.06l-4 4a.74.74 0 0 1-.53.22Z"/><path fill="#000000" d="M20 12.75H9a.75.75 0 0 1 0-1.5h11a.75.75 0 0 1 0 1.5Z"/></symbol>

  <symbol id="icon-sign-out" viewBox="0 0 24 24"><path fill="none" stroke="#currentColor" stroke-linecap="round" stroke-linejoin="round" stroke-miterlimit="10" stroke-width="1.5" d="m17 16l4-4m0 0l-4-4m4 4H7m4 9H5.4A2.4 2.4 0 0 1 3 18.6V5.4A2.4 2.4 0 0 1 5.4 3H11"/></symbol>

  <symbol id="icon-exclamation-line" viewBox="0 0 24 24" fill="#currentColor"><g fill="#currentColor"><path d="M11.126 5.633a1 1 0 0 1 1.748 0l6.601 11.881A1 1 0 0 1 18.601 19H5.399a1 1 0 0 1-.874-1.486l6.6-11.881zm3.497-.972c-1.143-2.057-4.102-2.057-5.245 0L2.777 16.543C1.666 18.543 3.112 21 5.399 21h13.202c2.287 0 3.733-2.457 2.622-4.457l-6.6-11.882zM12 8a1 1 0 0 1 1 1v4a1 1 0 1 1-2 0V9a1 1 0 0 1 1-1zm-1 8a1 1 0 0 1 1-1h.01a1 1 0 1 1 0 2H12a1 1 0 0 1-1-1z"/></g></symbol>

  <symbol id="icon-eyes-closed" viewBox="0 0 24 24"><path fill="none" stroke="#currentColor" stroke-linecap="round" stroke-linejoin="round" stroke-width="1.5" d="M20.645 7c-.731 2.05-1.958 3.813-3.534 5.082c-1.493 1.212-3.286 1.835-5.111 1.774c-1.825.06-3.618-.562-5.111-1.774C5.313 10.813 4.086 9.05 3.355 7M12 13.857V17m5.7-1.095l-1.919-2.947m-7.562 0L6.3 15.905m15.2-4.381L19.315 9.64m-14.63 0L2.5 11.523"/></symbol>

  <symbol id="icon-eyes" viewBox="0 0 24 24" fill="#currentColor"><g fill="none" stroke="#currentColor" stroke-linecap="round" stroke-linejoin="round" stroke-width="2"><path d="M3.587 13.779c1.78 1.769 4.883 4.22 8.413 4.22c3.53 0 6.634-2.451 8.413-4.22c.47-.467.705-.7.854-1.159c.107-.327.107-.913 0-1.24c-.15-.458-.385-.692-.854-1.159C18.633 8.452 15.531 6 12 6c-3.53 0-6.634 2.452-8.413 4.221c-.47.467-.705.7-.854 1.159c-.107.327-.107.913 0 1.24c.15.458.384.692.854 1.159Z"/><path d="M10 12a2 2 0 1 0 4 0a2 2 0 0 0-4 0Z"/></g></symbol>

  <symbol id="icon-lock" viewBox="0 0 24 24"><path fill="#currentColor" d="M17 9V7c0-2.8-2.2-5-5-5S7 4.2 7 7v2c-1.7 0-3 1.3-3 3v7c0 1.7 1.3 3 3 3h10c1.7 0 3-1.3 3-3v-7c0-1.7-1.3-3-3-3zM9 7c0-1.7 1.3-3 3-3s3 1.3 3 3v2H9V7z"/></symbol>

  <symbol id="icon-unlock" viewBox="0 0 24 24"><path fill="#currentColor" d="M17 9H9V7c0-.8.3-1.5.9-2.1c1.2-1.2 3.1-1.2 4.2 0c.4.4.6.9.8 1.4c.1.5.7.8 1.2.7c.5-.1.9-.7.7-1.2c-.2-.9-.7-1.7-1.3-2.3c-.9-1-2.2-1.5-3.5-1.5c-2.8 0-5 2.2-5 5v2c-1.7 0-3 1.3-3 3v7c0 1.7 1.3 3 3 3h10c1.7 0 3-1.3 3-3v-7c0-1.7-1.3-3-3-3z"/></symbol>

  <symbol id="icon-staff" viewBox="0 0 36 36" fill="#ffffff"><g id="clarityEmployeeGroupSolid0" fill="#ffffff"><ellipse cx="18" cy="11.28" rx="4.76" ry="4.7"/><path d="M10.78 11.75h.48v-.43a6.7 6.7 0 0 1 3.75-6a4.62 4.62 0 1 0-4.21 6.46Zm13.98-.47v.43h.48A4.58 4.58 0 1 0 21 5.29a6.7 6.7 0 0 1 3.76 5.99Zm-2.47 5.17a21.45 21.45 0 0 1 5.71 2a2.71 2.71 0 0 1 .68.53H34v-3.42a.72.72 0 0 0-.38-.64a18 18 0 0 0-8.4-2.05h-.66a6.66 6.66 0 0 1-2.27 3.58ZM6.53 20.92A2.76 2.76 0 0 1 8 18.47a21.45 21.45 0 0 1 5.71-2a6.66 6.66 0 0 1-2.27-3.55h-.66a18 18 0 0 0-8.4 2.05a.72.72 0 0 0-.38.64V22h4.53Zm14.93 5.77h5.96v1.4h-5.96z"/><path d="M32.81 21.26h-6.87v-1a1 1 0 0 0-2 0v1H22v-2.83a20.17 20.17 0 0 0-4-.43a19.27 19.27 0 0 0-9.06 2.22a.76.76 0 0 0-.41.68v5.61h7.11v6.09a1 1 0 0 0 1 1h16.17a1 1 0 0 0 1-1V22.26a1 1 0 0 0-1-1Zm-1 10.36H17.64v-8.36h6.3v.91a1 1 0 0 0 2 0v-.91h5.87Z"/></g></symbol>

  <symbol id="icon-arrow-left" viewBox="0 0 24 24"><path fill="none" stroke="#currentColor" stroke-linecap="round" stroke-linejoin="round" stroke-width="2.5" d="m14 7l-5 5m0 0l5 5"/></symbol>

  <symbol id="icon-arrow-right" viewBox="0 0 24 24"><path fill="none" stroke="#currentColor" stroke-linecap="round" stroke-linejoin="round" stroke-width="2.5" d="m10 17l5-5m0 0l-5-5"/></symbol>

  <symbol id="icon-staff-card" viewBox="0 0 24 24"><path fill="#currentColor" d="M2 3h20c1.05 0 2 .95 2 2v14c0 1.05-.95 2-2 2H2c-1.05 0-2-.95-2-2V5c0-1.05.95-2 2-2m12 3v1h8V6h-8m0 2v1h8V8h-8m0 2v1h7v-1h-7m-6 3.91C6 13.91 2 15 2 17v1h12v-1c0-2-4-3.09-6-3.09M8 6a3 3 0 0 0-3 3a3 3 0 0 0 3 3a3 3 0 0 0 3-3a3 3 0 0 0-3-3Z"/></symbol>

  <symbol id="icon-print" viewBox="0 0 24 24"><path fill="#00000099" d="M7 10a1 1 0 1 0 1 1a1 1 0 0 0-1-1Zm12-4h-1V3a1 1 0 0 0-1-1H7a1 1 0 0 0-1 1v3H5a3 3 0 0 0-3 3v6a3 3 0 0 0 3 3h1v3a1 1 0 0 0 1 1h10a1 1 0 0 0 1-1v-3h1a3 3 0 0 0 3-3V9a3 3 0 0 0-3-3ZM8 4h8v2H8Zm8 16H8v-4h8Zm4-5a1 1 0 0 1-1 1h-1v-1a1 1 0 0 0-1-1H7a1 1 0 0 0-1 1v1H5a1 1 0 0 1-1-1V9a1 1 0 0 1 1-1h14a1 1 0 0 1 1 1Z"/></symbol>

  <symbol id="icon-print-outline"  viewBox="0 0 432 384"><path fill="#currentColor" d="M363 107q26 0 45 18.5t19 45.5v128h-86v85H85v-85H0V171q0-27 18.5-45.5T64 107h299zm-64 234V235H128v106h171zm63.5-149q8.5 0 15-6.5t6.5-15t-6.5-15t-15-6.5t-15 6.5t-6.5 15t6.5 15t15 6.5zM341 0v85H85V0h256z"/></symbol>

  <symbol id="icon-arrow-down" viewBox="0 0 24 24"><path fill="none" stroke="#currentColor" stroke-linecap="round" stroke-linejoin="round" stroke-width="2" d="m7 10l5 5m0 0l5-5"/></symbol>

  <symbol id="icon-arrow-down-fill" viewBox="0 0 20 20"><path fill="#currentColor" d="m15 8l-4.03 6L7 8h8z"/></symbol>

  <symbol id="icon-x" viewBox="0 0 12 12"><path fill="#currentColor" d="M2.22 2.22a.749.749 0 0 1 1.06 0L6 4.939L8.72 2.22a.749.749 0 1 1 1.06 1.06L7.061 6L9.78 8.72a.749.749 0 1 1-1.06 1.06L6 7.061L3.28 9.78a.749.749 0 1 1-1.06-1.06L4.939 6L2.22 3.28a.749.749 0 0 1 0-1.06Z"/></symbol>

  <symbol id="icon-dark-mode-outline" viewBox="0 0 24 24"><path fill="#currentColor" d="M12 21q-3.75 0-6.375-2.625T3 12q0-3.75 2.625-6.375T12 3q.35 0 .688.025t.662.075q-1.025.725-1.638 1.888T11.1 7.5q0 2.25 1.575 3.825T16.5 12.9q1.375 0 2.525-.613T20.9 10.65q.05.325.075.662T21 12q0 3.75-2.625 6.375T12 21Zm0-2q2.2 0 3.95-1.213t2.55-3.162q-.5.125-1 .2t-1 .075q-3.075 0-5.238-2.163T9.1 7.5q0-.5.075-1t.2-1q-1.95.8-3.163 2.55T5 12q0 2.9 2.05 4.95T12 19Zm-.25-6.75Z"/></symbol>

  <symbol id="icon-light-mode-outline" viewBox="0 0 32 32"><path fill="#currentColor" d="M15 2h2v5h-2zm6.688 6.9l3.506-3.506l1.414 1.414l-3.506 3.506zM25 15h5v2h-5zm-3.312 8.1l1.414-1.413l3.506 3.506l-1.414 1.414zM15 25h2v5h-2zm-9.606.192L8.9 21.686l1.414 1.414l-3.505 3.506zM2 15h5v2H2zm3.395-8.192l1.414-1.414L10.315 8.9L8.9 10.314zM16 12a4 4 0 1 1-4 4a4.005 4.005 0 0 1 4-4m0-2a6 6 0 1 0 6 6a6 6 0 0 0-6-6Z"/></symbol>

  <symbol id="icon-search" viewBox="0 0 24 24"><path fill="none" stroke="#currentColor" stroke-linecap="round" stroke-width="2" d="m21 21l-4.486-4.494M19 10.5a8.5 8.5 0 1 1-17 0a8.5 8.5 0 0 1 17 0Z"/></symbol>

  <symbol id="icon-search-v2" viewBox="0 0 24 24"><path fill="none" stroke="#currentColor" stroke-linecap="round" stroke-linejoin="round" stroke-width="1.5" d="m16.893 16.92l3.08 3.08m-.889-8.419c0 4.187-3.383 7.581-7.556 7.581c-4.172 0-7.555-3.394-7.555-7.58C3.973 7.393 7.356 4 11.528 4c4.173 0 7.556 3.394 7.556 7.581Z"/></symbol>

  <symbol id="icon-role" viewBox="0 0 24 24"><path fill="#currentColor" d="M23 19a4 4 0 0 1-4 4h-2v-2h2a2 2 0 0 0 0-4h-2v-2h2a4 4 0 0 1 4 4ZM9 19a4 4 0 0 1 4-4h2v2h-2a2 2 0 0 0 0 4h2v2h-2a4 4 0 0 1-4-4Z"/><path fill="#currentColor" d="M14 18h4v2h-4zM9 5a3 3 0 1 0 3 3a3.009 3.009 0 0 0-3-3Zm0 4a1 1 0 1 1 1-1a1.003 1.003 0 0 1-1 1Zm-3.69 6A7.011 7.011 0 0 1 9 13.88a5.641 5.641 0 0 1 .778.064A5.965 5.965 0 0 1 13 13h.254A9.398 9.398 0 0 0 9 11.89c-2.03 0-6 1.07-6 3.58V17h4.349a5.986 5.986 0 0 1 1.188-2Z"/><path fill="#currentColor" d="M16 2h-4.18a2.988 2.988 0 0 0-5.64 0H2a2.006 2.006 0 0 0-2 2v14a2.006 2.006 0 0 0 2 2h5.141a3.606 3.606 0 0 1 0-2H2V4h14v9h2V4a2.006 2.006 0 0 0-2-2ZM9 3.25a.755.755 0 0 1-.75-.75a.75.75 0 0 1 1.5 0a.755.755 0 0 1-.75.75Z"/></symbol>

  <symbol id="icon-location" viewBox="0 0 24 24"><path fill="#currentColor" d="M12 3a7 7 0 0 0-7 7c0 2.862 1.782 5.623 3.738 7.762A26.158 26.158 0 0 0 12 20.758a26.14 26.14 0 0 0 3.262-2.994C17.218 15.623 19 12.863 19 10a7 7 0 0 0-7-7Zm0 20.214l-.567-.39l-.003-.002l-.006-.005l-.02-.014l-.075-.053a25.34 25.34 0 0 1-1.214-.94a28.157 28.157 0 0 1-2.853-2.698C5.218 16.876 3 13.637 3 10a9 9 0 0 1 18 0c0 3.637-2.218 6.877-4.262 9.112a28.145 28.145 0 0 1-3.796 3.44a16.794 16.794 0 0 1-.345.251l-.021.014l-.006.005l-.002.001l-.568.39ZM12 8a2 2 0 1 0 0 4a2 2 0 0 0 0-4Zm-4 2a4 4 0 1 1 8 0a4 4 0 0 1-8 0Z"/></symbol>

  <symbol id="icon-more" viewBox="0 0 24 24"><path fill="#currentColor" d="M14 18a2 2 0 1 1-4 0a2 2 0 0 1 4 0m0-6a2 2 0 1 1-4 0a2 2 0 0 1 4 0m-2-4a2 2 0 1 0 0-4a2 2 0 0 0 0 4"/></symbol>

  <symbol id="icon-loading-cirlce" viewBox="0 0 24 24"><path fill="none" stroke="#000000E6" stroke-dasharray="15" stroke-dashoffset="15" stroke-linecap="round" stroke-width="2" d="M12 3C16.9706 3 21 7.02944 21 12"><animate fill="freeze" attributeName="stroke-dashoffset" dur="0.3s" values="15;0"/><animateTransform attributeName="transform" dur="1.5s" repeatCount="indefinite" type="rotate" values="0 12 12;360 12 12"/></path></symbol>

  <symbol id="icon-loading-loop" viewBox="0 0 24 24"><path fill="none" stroke="currentColor" stroke-dasharray="15" stroke-dashoffset="15" stroke-linecap="round" stroke-width="2" d="M12 3C16.9706 3 21 7.02944 21 12"><animate fill="freeze" attributeName="stroke-dashoffset" dur="0.3s" values="15;0"/><animateTransform attributeName="transform" dur="1.5s" repeatCount="indefinite" type="rotate" values="0 12 12;360 12 12"/></path></symbol>

  <symbol id="icon-edit-outline" viewBox="0 0 48 48" fill="#currentColor"><g fill="none" stroke="#currentColor" stroke-linejoin="round" stroke-width="4"><path stroke-linecap="round" d="M7 42h36"/><path d="M11 26.72V34h7.317L39 13.308L31.695 6L11 26.72Z"/></g></symbol>

  <symbol id="icon-delete-outline" viewBox="0 0 24 24"><path fill="#currentColor" d="M7 4a2 2 0 0 1 2-2h6a2 2 0 0 1 2 2v2h4a1 1 0 1 1 0 2h-1.069l-.867 12.142A2 2 0 0 1 17.069 22H6.93a2 2 0 0 1-1.995-1.858L4.07 8H3a1 1 0 0 1 0-2h4V4zm2 2h6V4H9v2zM6.074 8l.857 12H17.07l.857-12H6.074zM10 10a1 1 0 0 1 1 1v6a1 1 0 1 1-2 0v-6a1 1 0 0 1 1-1zm4 0a1 1 0 0 1 1 1v6a1 1 0 1 1-2 0v-6a1 1 0 0 1 1-1z"/></symbol>

  <symbol id="icon-qr" viewBox="0 0 14 14"><path fill="none" stroke="#000000" stroke-linecap="round" stroke-linejoin="round" d="M3.32 5.955c.05.48.438.87.918.92a8 8 0 0 0 .867.055c.294 0 .583-.024.866-.055c.48-.05.868-.44.917-.92a9 9 0 0 0 .052-.86c0-.293-.023-.58-.052-.861a1.04 1.04 0 0 0-.917-.92a8 8 0 0 0-.866-.054c-.295 0-.584.024-.867.054c-.48.051-.868.44-.917.92c-.029.28-.051.568-.051.86s.022.58.05.861M10.014.942q.555.06 1.102.125a2.09 2.09 0 0 1 1.833 1.836l.12 1.095m-3.055 9.058q.555-.061 1.102-.125a2.09 2.09 0 0 0 1.833-1.836l.12-1.095M4 .942q-.555.06-1.102.125a2.09 2.09 0 0 0-1.833 1.836q-.062.541-.12 1.095M4 13.056q-.555-.061-1.102-.125a2.09 2.09 0 0 1-1.833-1.836Q1.003 10.553.945 10m2.659-.788v1.528h1.5m5.599 0V9.213h-1.5m1.527-2.237h-1.5m-2.29 3.75v-1.5m3.763-4.131V3.567h-1.5"/></symbol>

  <symbol id="icon-arrow-right-skip" viewBox="0 0 24 24"><path fill="#currentColor" d="m10.086 12l-4.793 4.793l1.414 1.414L12.914 12L6.707 5.793L5.293 7.207L10.086 12ZM17 6v12h-2V6h2Z"/></symbol>

  <symbol id="icon-arrow-left-skip" viewBox="0 0 24 24"><path fill="#currentColor" d="m13.914 12l4.793-4.793l-1.414-1.414L11.086 12l6.207 6.207l1.414-1.414L13.914 12ZM7 18V6h2v12H7Z"/></symbol>

  <symbol id="icon-plus" viewBox="0 0 24 24"><path fill="none" stroke="#currentColor" stroke-linecap="round" stroke-linejoin="round" stroke-width="2" d="M12 5v14m-7-7h14"/></symbol>

  <symbol id="icon-tick" viewBox="0 0 16 16"><path fill="none" stroke="#08a12e" stroke-linecap="round" stroke-linejoin="round" stroke-width="1.5" d="m2.75 8.75l3.5 3.5l7-7.5"/></symbol>

  <symbol id="icon-exclamation" viewBox="0 0 64 512"><path fill="#cc0000" d="M64 64c0-17.7-14.3-32-32-32S0 46.3 0 64v256c0 17.7 14.3 32 32 32s32-14.3 32-32V64zM32 480a40 40 0 1 0 0-80a40 40 0 1 0 0 80z"/></symbol>

  <symbol id="icon-two-user" viewBox="0 0 24 24"><path fill="#currentColor" fill-rule="evenodd" d="M8 4a4 4 0 1 0 0 8a4 4 0 0 0 0-8m-2 9a4 4 0 0 0-4 4v1c0 1.1.9 2 2 2h8a2 2 0 0 0 2-2v-1a4 4 0 0 0-4-4zm7.3-2a6 6 0 0 0 0-6A4 4 0 0 1 20 8a4 4 0 0 1-6.7 3m2.2 9a4 4 0 0 0 .5-2v-1a6 6 0 0 0-1.5-4H18a4 4 0 0 1 4 4v1a2 2 0 0 1-2 2z" clip-rule="evenodd"/></symbol>

  <symbol id="icon-menu" viewBox="0 0 20 20"><path fill="#currentColor" d="M0 3h20v2H0V3zm0 6h20v2H0V9zm0 6h20v2H0v-2z"/></symbol>

  <symbol id="icon-setting" viewBox="0 0 24 24"><path fill="#currentColor" d="M14.82 1H9.18l-.647 3.237a8.5 8.5 0 0 0-1.52.88l-3.13-1.059l-2.819 4.884l2.481 2.18a8.6 8.6 0 0 0 0 1.756l-2.481 2.18l2.82 4.884l3.129-1.058c.472.342.98.638 1.52.879L9.18 23h5.64l.647-3.237a8.5 8.5 0 0 0 1.52-.88l3.13 1.059l2.82-4.884l-2.482-2.18a8.6 8.6 0 0 0 0-1.756l2.481-2.18l-2.82-4.884l-3.128 1.058a8.5 8.5 0 0 0-1.52-.879zM12 16a4 4 0 1 1 0-8a4 4 0 0 1 0 8"/></symbol>

  <symbol id="icon-building" viewBox="0 0 24 24" fill="#000000"><g fill="none" stroke="#currentColor" stroke-linecap="round" stroke-linejoin="round" stroke-width="1.5" color="currentColor"><path d="m16 10l2.15.645c1.373.412 2.06.618 2.455 1.15c.395.53.395 1.248.395 2.681V22M8 9h3m-3 4h3m1 9v-3c0-.943 0-1.414-.293-1.707S10.943 17 10 17H9c-.943 0-1.414 0-1.707.293S7 18.057 7 19v3m-5 0h20"/><path d="M3 22V6.717c0-2.51 0-3.766.791-4.389s1.956-.284 4.287.392l5 1.451c1.406.408 2.109.612 2.515 1.169C16 5.896 16 6.653 16 8.169V22"/></g></symbol>

  <symbol id="icon-collection" viewBox="0 0 16 16"><path fill="#currentColor" d="M1.086 5.183A2.5 2.5 0 0 1 2.854 2.12l3.863-1.035A2.5 2.5 0 0 1 9.78 2.854L10.354 5H9.32l-.506-1.888a1.5 1.5 0 0 0-1.837-1.06L3.112 3.087a1.5 1.5 0 0 0-1.06 1.837l1.035 3.864a1.5 1.5 0 0 0 1.837 1.06L5 9.828v1.028a2.5 2.5 0 0 1-2.879-1.81zM8 6a2 2 0 0 0-2 2v5a2 2 0 0 0 2 2h5a2 2 0 0 0 2-2V8a2 2 0 0 0-2-2zM7 8a1 1 0 0 1 1-1h5a1 1 0 0 1 1 1v5a1 1 0 0 1-1 1H8a1 1 0 0 1-1-1z"/></symbol>

  <symbol id="icon-collection-multiple" viewBox="0 0 24 24"><path fill="#currentCOlor" d="M18.75 8A3.25 3.25 0 0 1 22 11.25v7.5A3.25 3.25 0 0 1 18.75 22h-7.5A3.25 3.25 0 0 1 8 18.75v-7.5A3.25 3.25 0 0 1 11.25 8zm-7.5 1.5a1.75 1.75 0 0 0-1.75 1.75v7.5c0 .966.784 1.75 1.75 1.75h7.5a1.75 1.75 0 0 0 1.75-1.75v-7.5a1.75 1.75 0 0 0-1.75-1.75zm1.25 6a2 2 0 1 1 0 4a2 2 0 0 1 0-4m6.25 1.5a.75.75 0 0 1 0 1.5h-2.5a.75.75 0 0 1 0-1.5zm-6.25 0a.5.5 0 1 0 0 1a.5.5 0 0 0 0-1m-.846-14.888a3.25 3.25 0 0 1 3.98 2.298L16.329 7h-1.553l-.59-2.202a1.75 1.75 0 0 0-2.143-1.237L4.798 5.502A1.75 1.75 0 0 0 3.56 7.646L5.5 14.89A1.75 1.75 0 0 0 7 16.175v1.506a3.25 3.25 0 0 1-2.948-2.403L2.11 8.033a3.25 3.25 0 0 1 2.298-3.98zM12.5 10.5a2 2 0 1 1 0 4a2 2 0 0 1 0-4m6.25 1.5a.75.75 0 0 1 0 1.5h-2.5a.75.75 0 0 1 0-1.5zm-6.25 0a.5.5 0 1 0 0 1a.5.5 0 0 0 0-1"/></symbol>

  <symbol id="icon-add-collection" viewBox="0 0 24 24"><path fill="#currentCOlor" d="M11.5 12.5V16q0 .213.143.357q.144.143.357.143t.357-.143q.143-.144.143-.357v-3.5H16q.213 0 .357-.143q.143-.144.143-.357t-.143-.357Q16.213 11.5 16 11.5h-3.5V8q0-.213-.143-.357Q12.213 7.5 12 7.5t-.357.143Q11.5 7.787 11.5 8v3.5H8q-.213 0-.357.143q-.143.144-.143.357t.143.357q.144.143.357.143h3.5ZM5.615 20q-.69 0-1.152-.462Q4 19.075 4 18.385V5.615q0-.69.463-1.152Q4.925 4 5.615 4h12.77q.69 0 1.152.463q.463.462.463 1.152v12.77q0 .69-.462 1.152q-.463.463-1.153.463H5.615Zm0-1h12.77q.23 0 .423-.192q.192-.193.192-.423V5.615q0-.23-.192-.423Q18.615 5 18.385 5H5.615q-.23 0-.423.192Q5 5.385 5 5.615v12.77q0 .23.192.423q.193.192.423.192ZM5 5v14V5Z"/></symbol>

  <symbol id="icon-ellipsis" viewBox="0 0 16 16"><path fill="#currentColor" d="M8 2.5a1.22 1.22 0 0 1 1.25 1.17A1.21 1.21 0 0 1 8 4.84a1.21 1.21 0 0 1-1.25-1.17A1.22 1.22 0 0 1 8 2.5zm0 8.66a1.17 1.17 0 1 1-1.25 1.17A1.21 1.21 0 0 1 8 11.16zm0-4.33a1.17 1.17 0 1 1 0 2.34a1.17 1.17 0 1 1 0-2.34z"/></symbol>

  <symbol id="icon-export-linear" viewBox="0 0 24 24" fill="#currentColor"><g fill="none" stroke="#currentColor" stroke-linecap="round" stroke-width="1.5"><path d="M4 12a8 8 0 1 0 16 0"/><path stroke-linejoin="round" d="M12 14V4m0 0l3 3m-3-3L9 7"/></g></symbol>

  <symbol id="icon-arrow-top-right" viewBox="0 0 21 21"><path fill="none" stroke="#000000" stroke-linecap="round" stroke-linejoin="round" d="M14.5 13.5v-7h-7m7 0l-8 8"/></symbol>

  <symbol id="icon-dollar" viewBox="0 0 24 24"><path fill="none" stroke="#currentColor" stroke-linecap="round" stroke-linejoin="round" stroke-width="1.5" d="M16.154 7.154c-.949-.949-2.619-1.608-4.154-1.65m-4.154 10.65c.893 1.19 2.552 1.868 4.154 1.926m0-12.576c-1.826-.049-3.461.778-3.461 3.034c0 4.154 7.615 2.077 7.615 6.231c0 2.37-2.027 3.387-4.154 3.31m0-12.575V3m0 15.08V21"/></symbol>

  <symbol viewBox="0 -0.5 25 25" fill="none" id="icon-occupied-unit-unused"><g id="SVGRepo_bgCarrier" stroke-width="0"></g><g id="SVGRepo_tracerCarrier" stroke-linecap="round" stroke-linejoin="round"></g><g id="SVGRepo_iconCarrier"> <path fill-rule="evenodd" clip-rule="evenodd" d="M12.5 12C13.3284 12 14 11.3284 14 10.5C14 9.67157 13.3284 9 12.5 9C11.6716 9 11 9.67157 11 10.5C11 11.3284 11.6716 12 12.5 12V12Z" stroke="#currentColor" stroke-width="1.5" stroke-linecap="round" stroke-linejoin="round"></path> <path fill-rule="evenodd" clip-rule="evenodd" d="M12.5 5C12.2099 5.00011 11.9235 5.06538 11.662 5.191L6.50001 8.382V14.654C6.45751 16.4575 7.88358 17.9547 9.68701 18H15.313C17.1164 17.9547 18.5425 16.4575 18.5 14.654V8.382L13.338 5.191C13.0765 5.06538 12.7901 5.00011 12.5 5Z" stroke="#currentColor" stroke-width="1.5" stroke-linecap="round" stroke-linejoin="round"></path> <path d="M11.0411 13.4806C10.7543 13.1818 10.2795 13.172 9.98069 13.4588C9.68183 13.7456 9.67207 14.2204 9.95887 14.5193L11.0411 13.4806ZM15.0411 14.5193C15.3279 14.2204 15.3182 13.7456 15.0193 13.4588C14.7205 13.172 14.2457 13.1818 13.9589 13.4806L15.0411 14.5193ZM6.89428 9.01996C7.24664 8.8022 7.35575 8.34003 7.138 7.98768C6.92024 7.63532 6.45807 7.5262 6.10572 7.74396L6.89428 9.01996ZM5.10572 8.36196C4.75336 8.57972 4.64425 9.04188 4.862 9.39424C5.07976 9.7466 5.54193 9.85571 5.89428 9.63796L5.10572 8.36196ZM18.8943 7.74396C18.5419 7.5262 18.0798 7.63532 17.862 7.98768C17.6442 8.34003 17.7534 8.8022 18.1057 9.01996L18.8943 7.74396ZM19.1057 9.63796C19.4581 9.85571 19.9202 9.7466 20.138 9.39424C20.3558 9.04188 20.2466 8.57972 19.8943 8.36196L19.1057 9.63796ZM9.95887 14.5193C10.6231 15.2113 11.5408 15.6026 12.5 15.6026V14.1026C11.9493 14.1026 11.4224 13.878 11.0411 13.4806L9.95887 14.5193ZM12.5 15.6026C13.4592 15.6026 14.3769 15.2113 15.0411 14.5193L13.9589 13.4806C13.5776 13.878 13.0507 14.1026 12.5 14.1026V15.6026ZM6.10572 7.74396L5.10572 8.36196L5.89428 9.63796L6.89428 9.01996L6.10572 7.74396ZM18.1057 9.01996L19.1057 9.63796L19.8943 8.36196L18.8943 7.74396L18.1057 9.01996Z" fill="#currentColor"></path> </g></symbol>

  <symbol id="icon-occupied-unit" viewBox="0 0 512 512"><path fill="#currentColor" d="M277.8 8.6c-12.3-11.4-31.3-11.4-43.5 0l-224 208c-9.6 9-12.8 22.9-8 35.1S18.8 272 32 272h16v176c0 35.3 28.7 64 64 64h288c35.3 0 64-28.7 64-64V272h16c13.2 0 25-8.1 29.8-20.3s1.6-26.2-8-35.1zM200 256a56 56 0 1 1 112 0a56 56 0 1 1-112 0m-56 176c0-44.2 35.8-80 80-80h64c44.2 0 80 35.8 80 80c0 8.8-7.2 16-16 16H160c-8.8 0-16-7.2-16-16"/></symbol>
  
  <symbol id="icon-unit" viewBox="0 0 512 512"><path fill="#currentColor" d="M277.8 8.6c-12.3-11.4-31.3-11.4-43.5 0l-224 208c-9.6 9-12.8 22.9-8 35.1S18.8 272 32 272h16v176c0 35.3 28.7 64 64 64h288c35.3 0 64-28.7 64-64V272h16c13.2 0 25-8.1 29.8-20.3s1.6-26.2-8-35.1zM240 320h32c26.5 0 48 21.5 48 48v96H192v-96c0-26.5 21.5-48 48-48"/></symbol>

  <symbol id="icon-edit-alt" viewBox="0 0 24 24"><path fill="#currentColor" d="M19.045 7.401c.378-.378.586-.88.586-1.414s-.208-1.036-.586-1.414l-1.586-1.586c-.378-.378-.88-.586-1.414-.586s-1.036.208-1.413.585L4 13.585V18h4.413L19.045 7.401zm-3-3l1.587 1.585l-1.59 1.584l-1.586-1.585l1.589-1.584zM6 16v-1.585l7.04-7.018l1.586 1.586L7.587 16H6zm-2 4h16v2H4z"/></symbol>

  <symbol id="icon-delete-alt" viewBox="0 0 24 24"><path fill="#currentColor" d="M7 4a2 2 0 0 1 2-2h6a2 2 0 0 1 2 2v2h4a1 1 0 1 1 0 2h-1.069l-.867 12.142A2 2 0 0 1 17.069 22H6.93a2 2 0 0 1-1.995-1.858L4.07 8H3a1 1 0 0 1 0-2h4V4zm2 2h6V4H9v2zM6.074 8l.857 12H17.07l.857-12H6.074zM10 10a1 1 0 0 1 1 1v6a1 1 0 1 1-2 0v-6a1 1 0 0 1 1-1zm4 0a1 1 0 0 1 1 1v6a1 1 0 1 1-2 0v-6a1 1 0 0 1 1-1z"/></symbol>

  <symbol id="icon-stack" viewBox="0 0 256 256"><path fill="#currentColor" d="M230.91 172a8 8 0 0 1-2.91 10.91l-96 56a8 8 0 0 1-8.06 0l-96-56A8 8 0 0 1 36 169.09l92 53.65l92-53.65a8 8 0 0 1 10.91 2.91ZM220 121.09l-92 53.65l-92-53.65a8 8 0 0 0-8 13.82l96 56a8 8 0 0 0 8.06 0l96-56a8 8 0 1 0-8.06-13.82ZM24 80a8 8 0 0 1 4-6.91l96-56a8 8 0 0 1 8.06 0l96 56a8 8 0 0 1 0 13.82l-96 56a8 8 0 0 1-8.06 0l-96-56A8 8 0 0 1 24 80Zm23.88 0L128 126.74L208.12 80L128 33.26Z"/></symbol>

  <symbol id="icon-sort" viewBox="0 0 16 16"><path fill="#currentColor" d="M6 10.5a.5.5 0 0 1 .5-.5h3a.5.5 0 0 1 0 1h-3a.5.5 0 0 1-.5-.5zm-2-3a.5.5 0 0 1 .5-.5h7a.5.5 0 0 1 0 1h-7a.5.5 0 0 1-.5-.5zm-2-3a.5.5 0 0 1 .5-.5h11a.5.5 0 0 1 0 1h-11a.5.5 0 0 1-.5-.5z"/></symbol>

  <symbol id="icon-filter" viewBox="0 0 24 24"><path fill="none" stroke="#currentColor" stroke-linecap="round" stroke-linejoin="round" stroke-width="1.5" d="M4 3h16a1 1 0 0 1 1 1v1.586a1 1 0 0 1-.293.707l-6.415 6.414a1 1 0 0 0-.292.707v6.305a1 1 0 0 1-1.243.97l-2-.5a1 1 0 0 1-.757-.97v-5.805a1 1 0 0 0-.293-.707L3.292 6.293A1 1 0 0 1 3 5.586V4a1 1 0 0 1 1-1Z"/></symbol>

  <symbol id="icon-collection-tag" viewBox="0 0 1024 1024"><path fill="#currentColor" d="M256 128v698.88l196.032-156.864a96 96 0 0 1 119.936 0L768 826.816V128H256zm-32-64h576a32 32 0 0 1 32 32v797.44a32 32 0 0 1-51.968 24.96L531.968 720a32 32 0 0 0-39.936 0L243.968 918.4A32 32 0 0 1 192 893.44V96a32 32 0 0 1 32-32z"/></symbol>

  <symbol id="icon-collection-plus" viewBox="0 0 20 20"><path fill="#currentColor" d="M15.5 7a2.5 2.5 0 0 1 2.495 2.335l.006.164v6a2.5 2.5 0 0 1-2.336 2.495l-.164.005h-6a2.5 2.5 0 0 1-2.495-2.336l-.005-.164v-6a2.5 2.5 0 0 1 2.336-2.495L9.5 7h6Zm0 1H9.502a1.5 1.5 0 0 0-1.493 1.355l-.007.144v6a1.5 1.5 0 0 0 1.356 1.493l.144.007h6a1.5 1.5 0 0 0 1.493-1.356L17 15.5v-6a1.5 1.5 0 0 0-1.356-1.493L15.5 8Zm-2.999 1a.5.5 0 0 1 .492.41L13 9.5v2.498h2.501a.5.5 0 0 1 .09.992l-.09.008H13l.001 2.5a.5.5 0 0 1-.992.09l-.008-.09L12 13H9.501a.5.5 0 0 1-.09-.992l.09-.008H12l.001-2.5a.5.5 0 0 1 .5-.5Zm.162-5.306l.048.158l.575 2.147H12.25l-.505-1.889a1.5 1.5 0 0 0-1.696-1.091l-.141.03l-5.796 1.554a1.5 1.5 0 0 0-1.091 1.695l.03.142l1.554 5.795A1.5 1.5 0 0 0 6 13.346v1a2.502 2.502 0 0 1-2.31-1.682l-.052-.17l-1.553-5.795a2.5 2.5 0 0 1 1.61-3.015l.158-.047l5.795-1.553a2.5 2.5 0 0 1 2.957 1.458l.057.152Z"/></symbol>

  <symbol id="icon-category" viewBox="0 0 32 32"><path fill="#currentColor" d="M27 22.141V18a2 2 0 0 0-2-2h-8v-4h2a2.002 2.002 0 0 0 2-2V4a2.002 2.002 0 0 0-2-2h-6a2.002 2.002 0 0 0-2 2v6a2.002 2.002 0 0 0 2 2h2v4H7a2 2 0 0 0-2 2v4.142a4 4 0 1 0 2 0V18h8v4.142a4 4 0 1 0 2 0V18h8v4.141a4 4 0 1 0 2 0ZM13 4h6l.001 6H13ZM8 26a2 2 0 1 1-2-2a2.002 2.002 0 0 1 2 2Zm10 0a2 2 0 1 1-2-2a2.003 2.003 0 0 1 2 2Zm8 2a2 2 0 1 1 2-2a2.002 2.002 0 0 1-2 2Z"/></symbol>

  <symbol id="icon-extra-fee" viewBox="0 0 24 24" fill="#currentColor"><g fill="none" fill-rule="evenodd"><path d="M24 0v24H0V0h24ZM12.593 23.258l-.011.002l-.071.035l-.02.004l-.014-.004l-.071-.035c-.01-.004-.019-.001-.024.005l-.004.01l-.017.428l.005.02l.01.013l.104.074l.015.004l.012-.004l.104-.074l.012-.016l.004-.017l-.017-.427c-.002-.01-.009-.017-.017-.018Zm.265-.113l-.013.002l-.185.093l-.01.01l-.003.011l.018.43l.005.012l.008.007l.201.093c.012.004.023 0 .029-.008l.004-.014l-.034-.614c-.003-.012-.01-.02-.02-.022Zm-.715.002a.023.023 0 0 0-.027.006l-.006.014l-.034.614c0 .012.007.02.017.024l.015-.002l.201-.093l.01-.008l.004-.011l.017-.43l-.003-.012l-.01-.01l-.184-.092Z"/><path fill="#currentColor" d="M4 5a3 3 0 0 1 3-3h10a3 3 0 0 1 3 3v16a1 1 0 0 1-1.625.78l-1.875-1.5l-1.875 1.5a1 1 0 0 1-1.332-.073L12 20.414l-1.293 1.293a1 1 0 0 1-1.332.074L7.5 20.28l-1.875 1.5A1 1 0 0 1 4 21V5Zm3-1a1 1 0 0 0-1 1v13.92l.875-.7a1 1 0 0 1 1.25 0l1.8 1.44l1.368-1.367a1 1 0 0 1 1.414 0l1.367 1.367l1.801-1.44a1 1 0 0 1 1.25 0l.875.7V5a1 1 0 0 0-1-1H7Zm1 5a1 1 0 0 1 1-1h6a1 1 0 1 1 0 2H9a1 1 0 0 1-1-1Zm1 3a1 1 0 1 0 0 2h3a1 1 0 1 0 0-2H9Z"/></g></symbol>

  <symbol id="icon-extra-fee-v2" viewBox="0 0 24 24"><path fill="#currentColor" d="M2 2h20v2h-2v18.08l-1.625-1.3l-1.841-1.472l-1.62 1.44l-.664.59l-.664-.59L12 19.337l-1.586 1.41l-.664.59l-.664-.59l-1.62-1.44l-1.841 1.473L4 22.08V4H2V2Zm4 2v13.92l.875-.7l.659-.528l.63.56l1.586 1.41l1.586-1.41l.664-.59l.664.59l1.586 1.41l1.586-1.41l.63-.56l.659.527l.875.7V4H6Zm2 3h8v2H8V7Zm2 4H9v2h6v-2h-5Z"/></symbol>

  <symbol id="icon-extra-fee-v3" viewBox="0 0 24 24"><path fill="#currentColor" fill-rule="evenodd" d="M7.099 1.25H16.9c1.017 0 1.717 0 2.306.204a3.796 3.796 0 0 1 2.348 2.412l-.713.234l.713-.234c.196.597.195 1.307.195 2.36v14.148c0 1.466-1.727 2.338-2.864 1.297a.196.196 0 0 0-.271 0l-.484.442c-.928.85-2.334.85-3.262 0a.907.907 0 0 0-1.238 0c-.928.85-2.334.85-3.262 0a.907.907 0 0 0-1.238 0c-.928.85-2.334.85-3.262 0l-.483-.442a.196.196 0 0 0-.272 0c-1.137 1.04-2.864.169-2.864-1.297V6.227c0-1.054 0-1.764.195-2.361a3.795 3.795 0 0 1 2.348-2.412c.59-.205 1.289-.204 2.306-.204Zm.146 1.5c-1.221 0-1.642.01-1.96.121a2.297 2.297 0 0 0-1.414 1.462c-.111.339-.12.785-.12 2.037v14.004c0 .12.059.192.134.227a.2.2 0 0 0 .11.018a.194.194 0 0 0 .107-.055a1.695 1.695 0 0 1 2.296 0l.483.442a.907.907 0 0 0 1.238 0a2.407 2.407 0 0 1 3.262 0a.907.907 0 0 0 1.238 0a2.407 2.407 0 0 1 3.262 0a.907.907 0 0 0 1.238 0l.483-.442a1.695 1.695 0 0 1 2.296 0c.043.04.08.052.108.055a.2.2 0 0 0 .109-.018c.075-.035.135-.108.135-.227V6.37c0-1.252-.01-1.698-.12-2.037a2.296 2.296 0 0 0-1.416-1.462c-.317-.11-.738-.12-1.959-.12h-9.51ZM6.25 7.5A.75.75 0 0 1 7 6.75h.5a.75.75 0 0 1 0 1.5H7a.75.75 0 0 1-.75-.75Zm3.5 0a.75.75 0 0 1 .75-.75H17a.75.75 0 0 1 0 1.5h-6.5a.75.75 0 0 1-.75-.75ZM6.25 11a.75.75 0 0 1 .75-.75h.5a.75.75 0 0 1 0 1.5H7a.75.75 0 0 1-.75-.75Zm3.5 0a.75.75 0 0 1 .75-.75H17a.75.75 0 0 1 0 1.5h-6.5a.75.75 0 0 1-.75-.75Zm-3.5 3.5a.75.75 0 0 1 .75-.75h.5a.75.75 0 0 1 0 1.5H7a.75.75 0 0 1-.75-.75Zm3.5 0a.75.75 0 0 1 .75-.75H17a.75.75 0 0 1 0 1.5h-6.5a.75.75 0 0 1-.75-.75Z" clip-rule="evenodd"/></symbol>

  <symbol id="icon-cart" viewBox="0 0 24 24"><path fill="#currentColor" d="M0 1h4.764l.545 2h18.078l-3.666 11H7.78l-.5 2H22v2H4.72l1.246-4.989L3.236 3H0V1Zm7.764 11h10.515l2.334-7H5.855l1.909 7ZM4 21a2 2 0 1 1 4 0a2 2 0 0 1-4 0Zm14 0a2 2 0 1 1 4 0a2 2 0 0 1-4 0Z"/></symbol>

  <symbol id="icon-cart-v2" viewBox="0 0 24 24"><path fill="#currentColor" d="M2.5 4.25a.75.75 0 0 1 .75-.75h.558c.95 0 1.52.639 1.845 1.233c.217.396.374.855.497 1.271A1.29 1.29 0 0 1 6.25 6h12.498c.83 0 1.43.794 1.202 1.593l-1.828 6.409a2.75 2.75 0 0 1-2.644 1.996H9.53a2.75 2.75 0 0 1-2.652-2.022l-.76-2.772l-1.26-4.248l-.001-.008c-.156-.567-.302-1.098-.52-1.494C4.128 5.069 3.96 5 3.809 5H3.25a.75.75 0 0 1-.75-.75Zm5.073 6.59l.751 2.739c.15.542.643.919 1.206.919h5.948a1.25 1.25 0 0 0 1.202-.907L18.417 7.5H6.585l.974 3.287l.014.053ZM11 19a2 2 0 1 1-4 0a2 2 0 0 1 4 0Zm-1.5 0a.5.5 0 1 0-1 0a.5.5 0 0 0 1 0Zm8.5 0a2 2 0 1 1-4 0a2 2 0 0 1 4 0Zm-1.5 0a.5.5 0 1 0-1 0a.5.5 0 0 0 1 0Z"/></symbol>


</svg>